<svg xmlns="http://www.w3.org/2000/svg" xmlns:xlink="http://www.w3.org/1999/xlink" version="1.1" id="wasted_x5F_talent_x5F_BMP_xA0_Bild_1_" x="0px" y="0px" viewBox="0 0 226.8 226.9" style="enable-background:new 0 0 226.8 226.9;" xml:space="preserve">
	<path fill="#000" fillRule="evenodd" clipRule="evenodd" d="M131.7,46.6c0.3-0.1,1.8-0.4,2.5-0.3c1.3,0.1,3.8-0.2,5.3-0.3c1.8-0.1,3.3-0.4,4.8,0.5c0.7,0.4,1.2,0.8,1.9,1  c0.7,0.2,1.6-0.1,2.2,0c-0.6-1.3,0.7-2.9,2-3.6c0.6-0.3,2.2-0.6,3.1-0.7c0,0.2,0.1,0.3,0.2,0.5c0.2-0.1,0.3-0.2,0.5-0.4  c0,0.4,2.3,1,2.7,1.2c0.5,0.4,1.2,1,1.2,1.6c0.8,0.2,2.2-1,3.1-1.1c1.2-0.1,2.1,0.4,3.3,0.6c1.5,0.3,3.2,0.2,4.6,0.5  c1,0.2,2,0.7,3.1,1c0.3,0.1,0.6,0.4,1,0.4c0.4,0,0.6-0.6,1-0.5c0.5,0.1,0.4,0.4,0.7,0.5c0.2,0.1,0.7,0.2,1,0.2  c0.9,0.2,2.2,0.5,3,0.2c0.8-0.3,0.6-0.3,0.5-1.4c-0.2-2.2-0.3-4.3-0.7-6.4c-0.3-1.5,0-2.8,1.8-2.9c2.4-0.2,4.5-0.5,6.2,1.2  c1,0.9,0.8,1.2,1.2,2.4c0.4,1.3,0.8,1.6,1.9,2.4c1.6,1.2,3.9,2.2,5.9,2.9c0.8,0.3,1.7,0.4,2.5,0.5c0.7,0.1,2.5-0.4,3-0.2  c0.1,0.1,0.2,0.2,0.1,0.4c0,0,0.6-0.2,0.7-0.2c0.3,0.1,1.2,0.6,1.6,0.7c0-0.1,0-0.2-0.1-0.2c0.5,0,1.1,1.3,1.2,1.4  c1.1,1.3,1,2.1,0.7,3.4c-0.2,1-0.5,2.1-0.6,3.2c-0.3,4.1-0.8,7.9-0.9,12c-0.1,7.1-0.4,14.7,0.5,21.9c0.4,3.7,0.3,7.4,1,11.1  c0.3,1.8,0.7,3.9,1,5.8c0.3,2,1.6,4.9,0.5,6.5c-0.7,1-1.8,0.9-2.3,1.7c-0.4,0.6-0.1,2.5-0.1,3.1c-0.1,2.1-0.4,4.4-0.5,6.5  c-0.2,4.4-0.8,8.5-1,12.8c-0.1,1-0.3,1.8-0.4,2.7c-0.1,0.9-0.4,2.4-0.2,3.2c0.3,1.5,0.4,1,1.9,1.2c1,0.1,2.3,0.6,2.9,1.3  c0.9,1,1.4,2.5,1,3.7c-0.4,0.9-3.8,2.9-3.8,2.1c-0.6,0.4-1.3,0-1.9,0.4c-0.3,0.2-0.3,0.5-0.5,0.9c-0.3,0.4-0.7,1.2-0.9,1.7  c-0.5,1-0.6,2.6-0.9,3.8c-1.1,5-2.9,9.8-4.1,14.6c-0.7,3-1.6,5.6-2.2,8.2c-0.5,2.2-1.1,3.6-1,5.9c0.1,2.1,0.2,4.5,0.1,6.7  c-0.1,3.6,0.7,7.4,0.8,10.9c0.1,2.2,1.4,5.8,0.1,7.7c-0.3,0.5-1.3,1.4-1.8,1.7c-1.3,0.6-2.9,0.2-3.8-0.2c-0.7-0.3-1.4-0.6-2-1.1  c-0.7-0.7-1.1-1.1-2.1-1.6c-1.5-0.8-3.2-1.7-4.7-2.5c-2.6-1.4-5.7-3-8.5-4.6c-0.4-0.2-1.7-1.1-2-1.1c-1.3,0-1.2,1.4-2.2,1.8  c-0.7,0.3-1.8,0.5-2.6,0.5c-0.6,0.1-1.2-0.2-1.7-0.3c-1-0.3-1.7-0.4-2.4-1.2c-0.1-0.1-0.5-0.6-0.6-0.7c-0.2-0.3-0.7-2.1-0.7-2  c-0.9-0.8-7.2-0.4-7.7,0.2c-0.1,0.9,0,1.8-0.7,2.5c-0.6,0.6-1.8,0.7-2.6,0.8c-1.5,0.3-1.7,0.3-3.1-0.2c-1.5-0.6-1.5-0.2-2.8,0.1  c-2.2,0.5-5.8-0.1-8.3-0.2c-3.1-0.1-5.9,1.4-8.7,1.7c-1.8,0.2-3.4-1.2-4.3-2.5c-0.2-0.3-0.7-0.7-0.8-1.1c-0.3-1.2,0.5-2.9,0-4.3  c-0.3-0.7-0.3-0.6-1-0.8c-0.3-0.1-0.7,0.1-1,0c-0.5-0.1-0.8-0.5-1.3-0.6c-1.1-0.2-2.6,0.1-3.5,0.3c-2.1,0.4-4.4,1.3-6.2,2.6  c-0.7,0.4-1.2,1-1.7,1.2c-0.4,0.2-2.3,0.3-2.8,0.8c-0.2,1.3-0.3,1.4-1.7,0.9c-1-0.3-2.2-0.6-3.1-1.1c-1.2-0.6-1.9-1.3-3.2-1.8  c-1-0.4-2.2-1.2-3.4-1.7c-1-0.4-2.4-0.6-3.6-1.1c-0.8-0.3-2-1.3-2.9-1.3c-1.1,0-2.3,0.9-3.6,1.2c-1,0.2-2.4,0-3.1-0.3  c0.3-1.1-5.5,0.2-6,0.8c-0.4,0.4-0.3,1.8-0.6,2.3c0,0.1-1.5,1.4-1.3,1.3c-1.1,0.4-3.4,0.3-4.5,0c-0.8-0.3-1.7-1.1-2.3-1.6  c-1-0.8-0.1-0.7-1.5-1c-0.5-0.1-1.1,0-1.6,0c-1.2,0-2.4,0-3.5,0c-1.7,0-4.6-0.6-6.1,0.2c-0.8,0.4-0.8,0.7-0.4,1.7  c0.4,1.3,0.6,1.3,0.3,2.5c-0.2,1.1-0.4,1.5-1.4,2.1c-0.7,0.4-2.1,0.2-2.3,0.9c-0.4-0.4-1.6-0.4-2.1-0.4c-0.6,0-0.4-0.6-0.7,0.1  c-0.3,0.6,0.2,2.6,0.3,3.1c0.2,0.6,1.5,2.6,0.4,2.5c-0.2,0.9,0.3,2.7-1.6,1.5c-0.9-0.5-1.2-2.5-1.3-3.4c-0.2-1.9-0.4-3.7-0.8-5.7  c-0.9-4.1-1.5-8.1-2.6-12.1c-2.7-9.2-4.8-18.8-7.7-28c-1.2-4-2-8-3.5-12c-0.8-2.2-1.1-4.8-3.2-6.1c-1.5-0.9-3.1-2.9-1.9-4.6  c0.3-0.4,1.2-0.8,1.4-1.3c0.3-0.8,0.1-2.3,0.3-3.4c0.2-1.4,0.6-2.5,0.8-3.7c0.6-3,1-5.5,1.4-8.6c0.4-3.1,0.7-6.3,1-9.3  c0.2-1.9,0.1-3.8,0.2-5.7c0.1-1.1,0.7-2.9,0.7-4.3c0.1-1.6,0.1-2.7,0.5-4.3c0.1-0.4,0.2-0.1,0.2-0.7c0.1-0.5-0.1-1.1-0.1-1.6  c-0.1-1-0.3-1.9-0.4-2.9c-0.7-5.5-1.2-10.7-2-16.2c-0.6-3.9-0.9-8-1.4-12c-0.3-2.4-0.6-4.7-0.8-7.1c-0.1-0.8,0.2-2.7,0.1-3.1  c-0.1-1.1-0.6-2.5-0.7-3.9c-0.2-3.2-0.3-6.8-0.9-10c-0.4-2.2-0.2-4.6-0.5-6.8c-0.3-2.1-0.6-4.3-0.7-6.4c-0.1-2.3-0.4-4.6-0.6-6.9  C20,21,20,20.1,20,19.3c-0.1-1.4-1.3-4.9-0.8-6.1c0.8-1.8,4.3-0.7,5.6,0c2.3,1.2,2.1,3.8,2.3,6c0.2,2,0.4,4,1.5,5.9  c0.8,1.5,2.1,2.9,2.8,4.5c0.8,1.9,1.7,3.4,2.5,5.3c0.1,0.2,0.2,1,0.2,1.1c0.3,0.5,1.1,1.1,1.4,1.6c0.7,1.2,0.7,2.2,1.8,3.1  c0.4-0.3-0.1-1,0.1-1.3c0.2-0.4,0.8-0.5,1.2-0.7c1-0.5,1.2-0.4,2.2-0.5c1.5-0.2,3.8-0.2,4.9,0.8c0.9,0.8,0.7,1.4,1.9,1.8  c1.3,0.4,2.7,0.4,3.9,0.7c1.1,0.2,2.2,0.4,3.4,0.7c0.8,0.2,1.8,0.6,2.5,0.8c2.1,0.6,1.5,0.1,1.6-1.4c0.1-2.4,2.6-2.2,4.3-2.3  c1.5-0.2,2-0.5,3.4,0.4c0.4,0.3,1.1,0.8,1.3,1.2c0.7,1-0.7,3.2-0.4,3.8c0.2,0.3,1.1,0.6,1.5,0.7c1.3,0.3,2.7,0.3,4,0.5  c1.1,0.2,1.2,0.4,1.5-0.4c0.2-0.5,0-1.7-0.1-2.2c-0.2-2-2-4.9,1-5.6c2.6-0.6,6.1-0.6,7.3,2.3c0.3,0.8,0.2,2,0.2,2.9  c0,0.7-0.2,3.7,0.2,4.1c0.6,0.4,2.8-0.4,3.5-0.5c0.6-0.1,1.3-0.1,1.8-0.2c0.9-0.2,1.9-0.6,2.8-0.7c1.4-0.1,2.6,0.4,3.5,1.2  c0.4,0.4,1.1,1.1,1.5,1.4c0.5,0.4,2.7,1,3.5,0.6c0.1,0,0.4-0.8,0.5-0.9c0.3-0.4,1.7-1,1.7-1.4c2.2-0.1,4.2-0.6,6.2,1.1  c0.5,0.5,0.8,0.7,1.2,1.4c0.7,1.1,0.2,1.1,1.6,1.5c1.7,0.4,4,0,5.8-0.1c2-0.1,3.6-0.3,5.6-0.6c1.6-0.3,4.3-0.4,5.7-1.4  C128.4,48.2,131.1,45.9,131.7,46.6z M27.8,28.4c0.3,1.9,0.2,3.9,0.4,5.8c0.1,1.1,0.6,2.2,0.8,3.2c0.2,1,0.4,3.5-0.2,4.6  c0.1,0,0.3,0,0.4,0.1c0,0.4-0.3,0.6-0.2,0.9c0.2,0.4,0.5,0,0.6,0.5c0.1,0.4-0.2,0.5-0.3,1c0,0.6,0.3,1.2,0.4,1.8  c0.1,0.5,0,2.3,0.5,2.7c-0.9,0,0,3,0,3.5c0.2,0.1,1.3-0.1,0.8,0.7c-0.7-1.3-0.7,0.7-0.7,1.2c0,1.1-0.2,2.1,0,3.2  c0.4,2.9,0.6,5.7,1.1,8.6c0.3,1.7,0.4,3.4,0.6,4.9c0.1,1,0.2,6.4,1,6.7c0-0.4,0-0.8-0.1-1.2c0.1,0,0.2-0.1,0.2-0.1  c0,0.4,0.5,5.1,0.4,5c0-0.1,0-1.4-0.2-1.4c-0.6,0.4,0.5,5.3,0.6,5.3c0.1-1.1-0.2-2.2-0.3-3.4c0.1,0,1.1,5.2,0.7,5.6  c-0.1-0.1-0.2-0.2-0.3-0.1c0,0.2,0.2,1.6,0.4,1.7c0-0.4,0-0.7,0.1-1.1c0.2,0.4,0.2,0.9,0.1,1.3c-0.1-0.1-0.2-0.2-0.3-0.1  c0.2,1,1.7,4.2,1.1,5.3c-0.1-0.2-0.2-0.3-0.3-0.5c0,0.7,0.8,2,1,2.8c0.4,1.7,0.3,2.1,2.2,2.4c1.7,0.2,3.6,0.7,5.4,1.1  c0.4-2.3-0.4-5.7-0.7-8c-0.2-1.8-0.4-3.7-0.5-5.6c-0.4-5.8-0.8-11.8-1.3-17.6c-0.5-5.8-0.9-11.6-1.4-17.5c-0.1-1.1-0.2-2.1-0.3-3.1  c-0.2-1.7-0.7-2.3-1.7-3.6c-1.1-1.4-2-3.2-3-4.9c-1.1-2-2.3-4.1-3.3-6.2c-0.4-0.9-2.5-6.2-3.4-6.2C27.9,27.7,27.9,28.1,27.8,28.4z   M27.8,43.1c0-0.1,0.1-0.4-0.1-0.4C27.7,42.9,27.6,43.2,27.8,43.1z M27.1,43.4c0.2,0,0.3,0,0.5,0c0-0.2-0.1-0.3-0.4-0.4  C27.1,43.1,27.1,43.2,27.1,43.4z M49.3,77.1c-0.2,0.8,0.4,2,0.5,2.8c0.2,1.5,0.1,3,0.2,4.4c0,0.2,0.3,1,0.4,1.3  c0.2,0.9,0.2,1.9,0.2,2.7c0,1.2,0.2,2.1,0.2,3.3c0.1,1.6,0.3,3.5,0.6,5.3c0.2,1,0.4,2.1,0.5,3.2c0.2,1.7-0.1,2.9,2.2,2.9  c0-2.5,0.5-4.7,0.6-7.1c0.1-1.1,0.2-2.3,0.4-3.2c0.2-0.8,0.5-2.2,0.3-3.1c-0.3-0.1,0,0.4-0.2,0.4c0-0.9,0.2-1.8,0.2-2.7  c0-0.3,0.2-0.5,0.2-0.7c0-0.2-0.2-0.8-0.2-0.8c0.1-1.4,0.3-3,0.5-4.3c0.2-1.3,0.2-2.6,0.4-4.2c0.4-3.7,0.8-7,1.1-10.7  c0.3-3.5,0.4-6.5,0.8-9.7c0.1-0.4,0.2-1.4,0.3-2.1c0.1-1,0.5-2.8,0.5-3.5c0-1.1,0-2.1,0.1-3.2c0-0.4,0.6-2.1,0.5-2.3  c-0.5-0.9-4.1-1.3-5-1.5c-2.3-0.5-5.4-1.4-7.7-1c0.3,5,1.2,10.1,1.4,14.8c0.1,2,0.3,4.1,0.5,6.3c0.1,0.8,1.1,6.3,0.4,6.8  c0-0.1-0.1-0.1-0.2-0.1c0,1.9,0.8,3.9,0.5,5.9c0-0.1-0.1-0.1-0.2-0.1C49.4,76.8,49.3,76.8,49.3,77.1z M68.8,47.5  c-0.6,0.1-0.6,0-1.2,0.4c-0.4,0.3-0.2-0.1-0.5,0.7c-0.3,1-0.3,2.2-0.5,3.3c-0.4,2.4-0.6,5-0.8,7.5c-0.4,5.2-0.7,10.1-1.2,15.1  c-0.5,5.2-0.7,10.3-1.2,15.5c-0.4,5.2-1,10.3-0.7,15.7c0.1,2.4,0.3,2.9,2.7,3.1c0.9,0.1,1.7,0.1,2.5,0.2c1.2,0.2,2.4,0.2,3.7,0.5  c1.5,0.3,3.1,0.9,4.7,1.1c0.2-2.3-0.1-4.4,0-6.7c0.1-1.7,0.1-3.6,0-5.4c-0.1-3.4-0.7-7.1-0.1-10.3c-0.6-0.5-0.2-1.9-0.2-2.7  c0-0.3-0.1-1.5-0.1-2.3c-0.1-1.2-0.1-1.6-0.2-2.6c-0.1-0.6-0.1-1-0.2-1.3c-0.2-0.6-0.8-1.1-1-1.7c-0.2-1.1,0.7-1.6,0.9-2.3  c0.4-1.3-0.1-2.6-0.1-3.9c0-1.9-0.1-3.7-0.1-5.5c0-2.2-0.1-4.7-0.2-7c0-0.8,0-1.5-0.1-2.3c0-1,0.1-1.8-0.4-2.7  c-0.1-0.2-0.7-0.5-0.9-0.7c-0.4-0.6-1.3-1.8-1.2-2.5c0.2-1.1,2-1,2.2-1.7c0.3-1.2-2-1.2-3-1.3c-0.6,0-1.3,0-1.9,0.1  C69.6,47.5,69.3,49.1,68.8,47.5z M177.8,50.1c-1.1-0.5-2.8-0.4-3.6,0.4c-0.5,0.5-0.7,1.7-0.8,2.5c-0.2,2-0.5,4-0.7,6  c-0.3,4.1-0.7,8.2-1,12.3c-0.1,1.5-0.5,3.9-0.1,5.3c0.7,2.6,0.5-0.8,2-0.6c1.7,0.2,1,4,0.9,5.2c-0.9,5.7-0.8,11.7-0.8,17.6  c0,1-0.2,2.1,0.1,3c0.2,0.5,0.8,0.7,1,1.4c0.3,1.1-0.6,2.6-0.5,3.7c0,0.7,0.1,2.5-0.4,2.9c-2.1,1.6-1.7-3.2-2.4-3  c0.2,4.5-0.7,9.2-1.2,13.6c-0.2,1.7-0.6,3.5-1,5.3c-0.5,2.4-0.7,5.1-1,7.5c-0.3,2.2-0.7,4.4-1.4,6.6c-0.4,1.1-0.4,2.1-0.6,3.2  c-0.1,0.5-0.3,0.7-0.4,1.3c0,0.1-0.1-0.1-0.1,0.1c-0.1,1.5,0,0.6,0.4,1.3c0.6,1.3,3,3.4,5.1,3.2c0.9-0.1,0.9-0.9,1.8-1.4  c0.8-0.4,1-0.1,1.5-0.7c0.5-0.7,0.6-2.1,0.8-3c1.4-4.6,2.4-9.6,3.3-14.3c0.9-4.8,2.2-9.7,3.3-14.5c0.1-0.4,0.2-0.8,0.3-1.2  c0.2-1.3,0-0.9-0.4-2.1c-0.4-1.2-1.4-2.6-1.1-3.8c0.3-1,0.9-1.2,1.1-2c0.3-1.3-0.1-3-0.2-4.3c-0.2-4.8-0.5-9.5-0.5-14.2  c0-6.7-0.5-12.8-0.6-19.4c-0.1-3-0.1-5.8-0.2-8.8c-0.1-1.6-0.1-3.2-0.4-4.8C179.6,52.9,180.2,49.2,177.8,50.1z M99.4,50.6  c-0.8-0.2-2.8-0.6-3.2,0.1c-0.5,0.9,0,3.9,0,4.9c0,1,0.1,2,0.1,3c0,2.4-0.3,4.9-0.2,7.4c0,1.2-0.2,3.2,0.2,4.3c0.4,1,1,1,1.7,1.8  c1.2,1.5,0.3,2.2-0.8,3.3c-0.6,0.7-0.7,0.3-0.9,1.3c-0.2,0.6-0.1,1.4-0.1,2c0,1,0.1,2,0.1,2.9c-0.1,5.3,0,10.9-0.3,16  c-0.1,1.1-0.2,2.7,0.2,3.8c0.4,1.2,1,1.3,2,1.7c2.1,0.9,4.7,1.6,6.7,2.5c0.5-1.7,0.9-2.3,2.4-3c1.4-0.6,2.6-0.6,3.8-0.2  c0.5,0.2,1.1,0.5,1.6,0.5c1.8-0.1,1-0.8,0.8-2.4c-0.2-1.7-0.2-3.4-0.3-5.1c-0.2-2.5-0.2-4.8-0.4-7.3c-0.2-2.9-0.4-6.9-0.1-10.1  c-0.7-0.1-1.2,0.8-1.6,1.1c-0.5,0.5-1.3,0.9-1.9,1.1c-1.1,0.3-3.1,0-4.1-0.4c-3.4-1.4-3.2-5-3.6-8.2c-0.4-3.1-0.6-6.2-0.7-9.1  c-0.1-1.3,0.3-3.3-0.1-4.5c-0.4-1.1-1.1-0.7-2-1.5c0,0-1.6-1.9-1.6-1.7c0.4-0.2-0.3-1.4-0.2-1.6c0.1-0.5,0.7-1,1-1.2  c0.5-0.4,1.3-0.4,1.7-1.1c0.1,0.1,0.2,0.2,0.3,0.1C99.8,50.8,99.6,50.7,99.4,50.6z M194.9,52.9c-0.2-0.6-3.6-1.2-4.4-1.6  c-0.4-0.2-1.9-1.4-2.4-1.1c-0.5,0.3,0.1,2.1,0.1,2.6c0.4,4.2,0.4,8.8,0.6,13c0.4,7.8,0.1,14.9,0.5,22.6c0.2,4.1,0.5,8.3,0.6,12.5  c0,1.2,0,2.3,0.2,3.6c0.2,1.6,0.1,1.4,1.6,1.7c1.4,0.2,3.3,0.5,4.8,0.9c1.5,0.3,1.7,0.6,1.4-1.3c-0.1-1.1-0.5-2.3-0.7-3.4  c-0.4-2.6-0.5-5.1-0.8-7.7c-0.5-4.5-0.8-9.2-1-13.6c-0.2-5.3,0.1-10.4,0.1-15.6c0-2,0-3.8,0.1-5.7C195.8,58.1,196.6,53.2,194.9,52.9  z M22.9,50.8C23.2,50.8,22.9,50.5,22.9,50.8z M169.1,52.5c-1.8-0.6-4.5,0.1-6.4,0.3c-1.4,0.1-3.7,0-4.1,1.3c-0.3,1.1,0,3.3,0,4.5  c-0.1,4.8,0.4,9.5,0,14.3c-0.1,1.1-0.1,2.2-0.1,3.3c0,0.5-0.1,1.4,0,1.8c0.2,1.1,0.1,0.7,0.9,0.8c2.4,0.2,5.6-1.1,7.8-1.5  c0.5-0.1,2.5-0.1,2.9-0.7c0.5-0.8,0.1-3.1,0.1-4c0.1-1.7,0.4-3.4,0.4-5c0.2-5,0.5-10,1.2-15C170.9,52.6,170,52.8,169.1,52.5z   M141,52.7c-0.5,0.3-1.3,0-1.8,0.3c-0.8,0.6-0.4,1.9-0.4,2.9c0.1,1.5,0.2,3.1,0.3,4.6c0.3,4.4,0.3,8.9,0.5,13.3  c0.2,5.9,0,11.5,0,17.3c0,3.2,0.4,7,0.6,10.3c0.1,1.5-0.5,5.6,1,6.1c1.5,0.5,5.1-0.3,6.8-0.6c1.7-0.3,2.7,0,2.9-1.8  c0.1-0.9,0-1.8-0.1-2.7c-0.1-2.4-0.2-4.8-0.2-7.2c-0.1-2.5-0.1-4.9-0.3-7.3c-0.1-0.7,0-1.7-0.4-2.3c-0.2-0.4-0.8-0.6-1-0.9  c-0.7-0.8-1.2-1.7-0.7-2.8c0.5-1,1.7-1,2-2.2c0.3-0.9,0.1-2.1,0.1-3c0.1-2.1-0.1-4.1,0-6.2c0.1-3.1,0.2-6.4,0-9.5  c-0.1-1.6,0.4-3.7-0.1-5.2c-0.5-1.5-1.1-0.5-2.6-1c-0.9-0.3-2.2-0.8-2.8-1.1c-0.7-0.4-0.9-0.9-1.7-1C142.8,52.8,141.1,52.6,141,52.7  z M86.5,53.2c-0.4,0.1-0.9,0.2-1.4,0.3c-1.4,0.3-1.6,0.3-1.8,1.5c-0.3,2.1,0,4.6,0,6.8c0,1.7,0.2,3.3,0.2,4.9c0,1.1-0.4,5.8,0.5,6.2  c0.1,0,2.6-0.7,2.7-0.8c1.8-0.9,1-3,0.9-4.7c-0.1-2.3-0.1-4.5-0.2-6.7c-0.1-1.5,0.1-3,0.1-4.5C87.5,55.2,87.8,52.8,86.5,53.2z   M127.9,55.9c-0.2,0.8-1.2,1.8-1.6,2.6c-0.5,0.9-0.9,1.7-1.6,2.7c-0.6,1-1.2,2.1-1.8,3c-0.5,0.8-1.6,3.2-2.5,3.5  c0.1,0.2,0.2,0.3,0.5,0.4c-0.1-0.1-0.1-0.1-0.1-0.2c1.1,0.1,0.6,0.4,1,1c0.2,0.3,0.8,1.1,0.8,1.7c0,1.3-0.6,2.2-0.7,3.7  c-0.3,2.9-0.6,5.9-0.6,8.8c-0.1,2.8,0.2,5.6,0.3,8c0,3.2,0,6.7,0.5,10c0.2,1.3,0.3,2.8,0.9,4c0.4,0.9,1,1.1,2.1,1.5  c1.5,0.5,3.4,0.4,5,0.6c0.3,0,1.4,0.1,1.6,0c0.4-0.4-0.2-2.7-0.2-3.2c-0.1-1.5-0.1-3.2-0.3-4.7c-0.4-3.7,0-7.5,0-11.3  c0-3.3-0.2-6.8-0.1-10.1c0-3.8-0.2-7.4-0.3-11.3c-0.1-1.6-0.1-3.2-0.2-4.7c-0.1-1.9,0-4.4-0.7-6.1C129.2,55.4,128.6,55.8,127.9,55.9  z M124,57.7c-0.5-0.3-2.9,0.2-3.5,0.1c-1.3-0.1-2.8-0.3-3.9-0.4c-2.5-0.2-4.6,0.1-7.2,0.1c0.2,2.4-0.1,4.8,0,7.1  c0.1,2,0.5,3.9,0.5,5.9c0.7,0.1,2-0.8,2.5-1.2c0.8-0.6,1.8-1.1,2.7-1.5c1.6-0.7,3.3-0.4,4.5-1.9c2.2-2.9,3.5-6.1,5.6-8.9  C124.7,57.2,124.3,57.4,124,57.7z M151.2,77C151.4,77,151.2,76.7,151.2,77z M32.7,78.2c0.1,0,0.2,0,0.4,0  C32.9,77.4,32.7,78.2,32.7,78.2z M86.4,89.7c-0.1-0.1-0.1-0.2-0.1-0.4c0.1,0,0.5,0.1,0.6,0.1c0.4-0.8,0.1-0.1,0.5-0.2  c0.5-1.8,0.3-3.5,0.3-5.4c0-0.7,0.5-4.8,0-5.1c-0.4-0.3-3.5,1-3.7,1.4c-0.4,0.8,0.1,3.3,0.1,4.2c0,1.7,0.1,3.4,0.2,5.1  c0.2,4,0.3,8.1,0.4,12.2c0,2.1,0.1,4.2,0.2,6.2c0,0.8-0.1,1.7,0,2.6c0.1,1.5,0.4,1.7,1.9,1.9c0,0.6-1,1.4,0.2,1.6  c-0.2,1.5-1.9,0-2.3,0.1c-0.2,0.1-2.3,1.3-2.5,1.4c-0.8,0.6-0.6,2.7-0.7,3.8c-0.1,4.1-0.1,8.1-0.1,12.3c0,2.6-0.8,7.4,0.4,9.5  c0.9,1.5,2.7,0.9,4.1,0.8c2.8-0.2,5.9-0.2,8.8-0.6c0.4-0.1,1.8,0,2-0.2c0.6-0.7-0.5-2.2-0.5-2.7c0-0.9,0.3-1.4,1-1.9  c0.2-0.1,1.5-0.4,1.6-0.5c0.8-1.1-0.9-5.9-1.1-7.2c-0.2-1-0.4-2-0.6-3c-0.9-4.3-1.6-8.7-2.7-12.9c-0.4-1.7-0.9-3.4-1.4-5.1  c-0.2-0.6-0.2-1.5-0.6-1.9c-0.5-0.5-1.7-0.6-2.4-0.9c-1.8-0.7-3-1.2-3.1-3.4c-0.1-1.4-0.2-2.9-0.2-4.3c0.1-1.8-0.5-2.9-0.5-4.7  c0-0.4,0.2-0.5,0.1-1c0-0.2-0.1-0.6-0.1-0.8C86.3,91,85.5,88.8,86.4,89.7z M171.4,83.6c-0.3,1.5,1,6.7-1,6.5  c-2.1-0.2-0.8-4.9-0.8-6.3c-1-0.2-2.1,0.4-3.1,0.6c-1.2,0.2-2.5,0.3-3.6,0.5c-1,0.2-2,0.5-3,0.7c-1.6,0.5-1.6,0.6-1.5,2.5  c0.2,2.3,0.2,4.7,0.2,7.1c0.1,1.7-0.1,4.4,0.6,5.9c0.5,1.1,0.7,0.7,2.2,0.5c2.7-0.5,5.4-1,8.1-1.1c0.3,0,1.3,0,1.4,0  c1.2-0.3,0.6,0.2,1-0.6c0.4-0.8,0-2.4,0.1-3.3c0.1-2.3,0-4.6,0.1-6.9c0-0.8,0-1.8,0-2.5C172.1,86.7,172.7,82.9,171.4,83.6z   M132.1,85.7c0.2,0,0.2,0,0.1-0.2C132,85.5,132,85.5,132.1,85.7z M76.2,86.9c0.3,0,0.4-0.1,0.4-0.4C76.3,86.6,76.1,86.7,76.2,86.9z   M151.4,87.1C151.7,87.1,151.4,86.8,151.4,87.1z M181.3,88.4C181.6,88.4,181.3,88.1,181.3,88.4z M86.2,89.9  C86.7,89.9,86.2,89.7,86.2,89.9z M28.8,104.7c-0.7,3.7-0.9,7.6-1.3,11.4c-0.2,1.8-0.4,3.7-0.5,5.6c-0.1,1-0.1,2.3-0.2,3.1  c0,0.3-0.1,2.5-0.4,2.8c-0.3,0-0.8,5.2-0.9,6.2c-0.1,0.7-0.1,1.5-0.2,2.3c-0.1,0.6-0.2,1.2-0.2,1.8c0,0-0.6,0.4-0.6,0.7  c2.6,0.1,4.9-0.3,7.5-0.8c1.9-0.4,4.5-0.3,6.2-1.2c0.5-0.3,0.6,0.2,0.9-0.6c0.1-0.4-0.2-2.1-0.3-2.6c-0.1-1.2-0.3-2.6-0.6-3.7  c-0.5-2.2-1.4-4.6,1.2-5.2c2-0.4,5.1-0.8,6.8,1.3c0.9,1.2,0.9,2.4,0.9,3.9c0,1.2-0.3,3.2,0.1,4.4c0.3,0.9-0.3,0.6,0.7,0.8  c0.4,0.1,0.8-0.1,1.2-0.2c0.5,0,1,0,1.5-0.1c1.6-0.2,3-0.5,4.6-0.5c1.1,0,3.3,0.3,4.2-0.2c0.9-0.5,0.4,0,0.6-1  c0.1-0.7-0.2-1.6-0.2-2.3c-0.1-1-0.2-2-0.3-3c-0.4-3.6-0.6-7.3-0.7-10.9c0-1,0.1-4.7-0.6-5.5c-0.1-0.1-1.8-0.5-2.1-0.6  c-0.9-0.4-2-1-3.1-1.2c-0.2,2.3,1.7,4.8,0.3,6.8c-1,1.4-2.8,2-4.4,1.8c-1.7-0.2-4.1-1.4-4.4-3.2c-0.3-2.1-0.1-4.4-0.4-6.4  c-0.2-1.9-0.8-1.8-2.5-2.2c-1.6-0.4-3.2-0.7-4.7-0.8c-1.7-0.1-3.3,0-4.8-0.4c-0.5-0.1-1-0.4-1.4-0.6c-0.1-0.1-1.4-0.9-1.4-0.9  C29.1,104,28.9,104.3,28.8,104.7z M104.8,107.3c-1.6,0-3.5-1.2-4.8-1.8c-1.1-0.5-3.1-1.7-4.4-1.4c-1.5,0.3-1.3,1.3-1,2.5  c1.4,5.6,2.5,11.2,3.7,16.9c0.7,3.3,1.5,6.7,1.9,10c0.2,1.2,0.7,3.2,2.4,2.6c1.3-0.5,1-3.3,1.1-4.7c0.2-4.1,0.8-8.4,1.5-12.6  c0.3-1.5,0.6-3.2,0.8-4.8c0.2-1.1,0.4-2.2,0.6-3.4c0.1-0.4,0.3-0.9,0.2-1.2C106.8,107.9,106.3,108,104.8,107.3z M168.7,107.1  c-2.9,0-5.6,0.6-8.5,1.8c-0.8,0.3-1.8,0.9-2.6,1.2c-0.6,0.2-1.1,0.6-1.8,0.6c-0.4,0.1-0.7-0.5-1-0.3c-0.6,0.4-0.9,3.5-1.1,4.3  c-0.1,1-0.3,1.9-0.5,2.8c-0.3,1.5-0.7,3-1,4.5c-0.1,0.7-0.2,2.4-0.4,2.7c-1.2,6.1-2.9,12.1-5.1,17.8c-1.1,2.8,0.8,2.8,2.7,3.2  c1.5,0.3,3.2,0.6,5.1,0.3c1-0.2,2-0.2,3-0.4c1.1-0.2,1-0.8,1.9-1.1c0.5-0.2,1.6,0.2,2.1,0.1c0.9-0.1,1.3-0.4,2-0.1  c1.8-5.7,2.4-11.6,3.5-17.5c0.4-2.4,1-4.5,1.4-7c0.2-1.2,0.3-2.6,0.4-3.8c0.2-2.2,1.8-7.3,0.3-9.1  C169.3,107,168.6,107.1,168.7,107.1z M131.5,108.5c-2.1-0.7-4.7-0.4-6.8-0.7c-0.4-0.1-1.2-0.4-1.7-0.2c-0.3,0.1-0.6,0.7-0.8,0.9  c-1,0.6-1.3,0.8-1.4,2.1c-0.3,2.5,0.6,5.5,0.9,8.1c0.3,2.7,0.6,5.5,0.7,8.2c0.1,2.7,0.2,5.4,0.2,8c0,0.5-0.1,2.9,0.2,3.3  c0.4,0.6,1.4,0.2,2.2,0.4c1.6,0.5,1.2,1.4,1.8-0.9c0.2-0.7,0.7-1,1-1.5c0.5-1,0.5-2.2,0.8-3.2c0.3-1.1,0.8-2.2,1.1-3.2  c0.8-2.9,1.5-5.8,2.2-8.5c0.6-2.2,1.2-4.2,1.6-6.4c0.2-0.8,0.9-2.8,0.6-3.5c0,0-1.4-0.9-1.5-1C132.1,110,131.3,109.3,131.5,108.5z   M151.3,108.2c-1.2-0.3-4,0.4-5.2,0.6c-1.5,0.2-2.9,0.4-4.5,0.6c0,1.5,3.5,0.7,3.8,1.7c0.6,1.5-3.5-0.5-4.2-0.4  c-0.6,0-2,0.5-2.4,1.1c-0.5,0.8,0,2.5,0.1,3.3c0.4,1.9,0.5,3.9,0.8,5.9c0.7,3.8,1,7.7,1.2,11.6c0.1,1.9,0.2,14.2,0.6,14.2  c0-1.3,0.8-0.6,1.2-0.7c0.1-0.2,0.1-0.3,0.2-0.5c1.1-0.1,1.2-0.7,1.6-2c0.4-1.5,1-2.8,1.5-4.2c1.1-3,1.8-6.1,2.6-9.3  c1.1-4.8,2.1-9.5,3.2-14.2c0.3-1.4,0.6-2.6,0.8-4c0.1-0.4,0.3-1.8,0.3-1.9C152.7,109.2,151.1,108.8,151.3,108.2z M108.4,110.9  c-0.7,1.2-0.7,3.4-1,4.8c-0.3,1.3-0.6,2.7-0.8,4c-0.2,1.9-0.4,3.8-0.6,5.7c-0.2,2.2-0.8,4.9-1,7.4c-0.1,1.7-0.9,3.4,0,4.8  c0.2,0.4,0.8,0.7,0.9,1.1c0.1,0.3-0.2,1.3,0,1.6c0.3,0.4,1.9,0.7,2.4,0.8c1.8,0.5,3.5,0.7,5.2,1c1.8,0.2,3.4,0.9,5.3,1.2  c-0.2-0.9-0.7-2-0.5-2.9c0.3-1,1-0.5,1.8-1.2c0.9-0.6,0.8-0.8,0.8-1.9c0-3.7-0.1-7.4-0.4-11.1c-0.3-4-0.7-8.1-1.3-12.1  c-0.2-1.5-0.2-3.8-1.3-4.4c-0.6-0.3-5.1-0.5-5,0.2c1,0.3,1,0.6,0.2,0.8c-0.6,0.2-1.6-0.5-2.2-0.8  C109.6,109.4,108.2,108.4,108.4,110.9z M62.6,109.7c-0.6,0.5-0.6,0.6-1.2,0.8c-0.2,0.1-1.4,0.4-1.4,0.6c-0.6,1,0.4,4.1,0.5,5.3  c0.2,3,0.1,6,0.5,9c0.3,2.4,0.1,5.4,0.7,7.7c0.5,1.6,1.5,1.4,2.9,1.9c0.3,0.1,2,0.5,1.9,1c0.1-0.1,0.3-0.2,0.5-0.2  c0.2,0.9,0.8,0.7,1.3,1.4c0.1,0.1,0.4,1,0.4,1.2c0.3,1.1-0.3,2.2,1,2.7c0.8,0.3,2.6,0,3.4-0.1c1.2-0.1,2.4-0.4,3.7-0.6  c0.7-0.1,1.6,0,2.3-0.2c0.8-0.3,0.7-0.1,0.8-1.3c0.1-0.9,0-1.8,0-2.8c0-3.2-0.3-6.2-0.1-9.5c0.1-2.8,0.2-5.8,0.2-8.6  c0-1.1,0.2-2-0.5-2.7c-0.3-0.3-1.4-0.4-1.8-0.6c-0.9-0.6-1.2-1.7-1.7-2.3c-1.1-1.3-4.4-1.6-6.3-1.7c-1-0.1-1.9-0.1-2.8-0.3  c-0.6-0.1-1.2-0.3-1.8-0.4c-0.4,0.1-0.8,0.2-1.3,0.2C63.5,109.9,63.1,109.7,62.6,109.7z M135.9,113.5c-1.4,2.5-1.5,5.9-2.4,8.5  c-1,2.8-1.5,6.1-2.3,9.1c-0.7,2.8-1.5,5.5-2.3,8.3c-0.6,2.1-0.5,4.5-0.5,7c1.5-0.6,3.5-0.2,5-0.2c2.8-0.2,3.6,0.2,6.1,1.4  c-0.1-5.9-0.3-11.7-0.4-17.7c0-1.8-1.2-17.7-3-17.8C135.9,112.6,135.9,113,135.9,113.5z M180.3,130.7c-0.2,0-1,3.2-1.1,3.6  c-0.1,0.6-0.1,1.2-0.3,1.8c-0.5,1.9-1,3.9-1.3,6.1c-0.2,1.2-0.8,2.5-0.9,3.7c0,1.5,0.2,0.8,1.8,1c0.5,0.1,0.9,0.2,1.4,0.2  c1,0,1.1,0.1,1.3-0.7c0.3-0.9-0.4-2.1,0.3-3c1-1.2,3.4-1.2,4.7-1.2c2.2,0,3.3,1.1,4.3,2.6c0.2,0.2,0.4,0.9,0.7,1.1  c0.5,0.2,2.3-0.4,3.1-0.5c1.1-0.2,2.1-0.3,3.1-0.6c0.3-0.1,0.4-0.3,0.6-0.3c0.3-0.1,0.6,0.1,0.9,0c0.1,0,0.7-0.3,0.6-0.3  c0.9-0.6,0.9-4.6,1-6c0.2-1.7,0.3-3.3,0.5-5c0.3-3.3,0.9-6.7,1.1-10c0.1-1.9,0.1-4,0.2-5.9c0-0.6,0.5-2.3,0.1-2.9  c-0.3-0.5-2.2-0.6-2.9-0.7c-1.7-0.1-2.5,0.2-4.1-0.1c-0.8-0.2-1.4-0.3-2.2-0.4c-0.7-0.1-1.3-0.3-1.9-0.3c-0.9,0-1.3,0.4-1.9,0.8  c-0.5,0.3-1.5,0.5-2.2,0.6c-0.4,0.1-1,0.1-1.4,0.1c-0.3,0-1.3-0.5-1.6-0.4c-0.9,0.3-1.1,3.9-1.5,5c-0.4,1.4-0.9,2.9-1.3,4.4  c-0.2,0.9-0.2,2-0.4,2.9c-0.1,0.6-0.6,3.3-1,3.5c0-0.1-0.1-0.2-0.2-0.2C180.2,129.9,180.3,130.3,180.3,130.7z M131.7,127.7  c0,0.1,0,0.2,0,0.4C132.4,127.9,131.6,127.7,131.7,127.7z M168.6,127.9C168.8,127.9,168.6,127.6,168.6,127.9z M150.4,128.7  C150.7,128.7,150.4,128.4,150.4,128.7z M150.2,129.7C150.5,129.7,150.2,129.4,150.2,129.7z M130.9,130.9  C131.2,130.9,130.9,130.6,130.9,130.9z M168,132.3C168.2,132.3,168,132,168,132.3z M104.2,133.3C104.5,133.3,104.2,133,104.2,133.3z   M167,133.9c0.2,0,0.2,0,0.1-0.2C167,133.6,166.9,133.7,167,133.9z M167.2,135.7c-0.1,0.2,0,0.4,0.1,0.5c0-0.2,0-0.5,0.1-0.7  C167.4,135.5,167.3,135.6,167.2,135.7z M166.6,138.2C166.9,138.2,166.6,137.9,166.6,138.2z M166.8,138.7c0-0.1,0.1-0.4-0.1-0.4  C166.7,138.4,166.5,138.7,166.8,138.7z M56.5,140.9c-1.7,0.6-4.5,0.2-6.5,0.5c-1.7,0.2-2.4,0-2.5,1.7c-0.1,1.3,0,2.8,0.1,4.1  c0.3,3.7,0.4,7.7,0.3,11.6c-0.1,4.7,0.3,9.3,0.3,14c0,4.8,0.1,9.9,0.3,14.8c0.1,2.1,0.3,4.4,0.3,6.3c0,1.6,0.1,1.9,1.7,1.8  c1.5-0.1,3-0.2,4.6-0.2c1.8-0.1,4.3,0.7,6.1,0.2c1.2-0.3,1-0.5,1-2c0-0.6-0.2-0.8-0.2-1.5c-0.1-2.1,0.1-4.2,0-6.3  c-0.2-3.8-0.5-7.5-0.5-11.2c0-5.3-0.1-10.5-0.2-15.8c-0.1-1.9-0.1-3.8-0.1-5.6c0-1-0.1-2-0.2-3c-0.1-1.3-0.7-2.9-0.7-4.1  c-1.6,1.2-1.8-4.1-1.8-4.7C57.8,141.4,57.1,140.9,56.5,140.9z M146.8,141.4C147.1,141.4,146.8,141.1,146.8,141.4z M106.3,145.2  c-0.6,0.9-0.1,4.6,0,5.6c0.2,2.2,0.3,4.3,0.3,6.4c0,5-0.2,9.7-0.2,14.7c0,4-0.3,8-0.4,12c-0.1,1.8-0.1,3.7-0.1,5.6  c0,1.3-0.4,1,0.7,1.2c0.7,0.1,2-0.5,2.7-0.6c1.9-0.4,3.6-0.7,5.6-0.9c0.7-0.1,1.9-0.3,2.6-0.2c1.4,0.2,2.9,0.5,1.9-1.9  c-0.1-0.3-1.1-0.9-1.2-1.3c-0.4-1-0.1-0.8,0.1-1.4c0.2-0.6,0.8-1,1.1-1.7c0.8-2,0.3-4.7,0.3-6.9c0.1-3.7,0.1-7.7,0.3-11.4  c0-1.2,0.2-2.4,0.2-3.6c0-1.4,0.4-4.3-0.1-5.5c-0.7-1.6-3.9-2.5-3.8-4.7c0.1-2.6,4.3-1.2,3-4.6c-0.5-1.3,0.1-0.2-0.9-0.9  c-0.8-0.5-1.3-0.5-2.2-0.7c-0.7-0.2-1.2-0.3-1.9-0.5c-0.8-0.2-1.7-0.2-2.6-0.4c-0.9-0.2-1.8-0.7-2.7-0.4c0.3-0.1-1.5,0.3-0.7,0.3  c-0.1,0-0.3,0.1-0.7,0.1c-0.6-0.1-0.6-1.3-1.6-1.1C106.1,143.2,105.8,144.4,106.3,145.2z M97,142.5c-1.2-0.2-3,0.4-4.1,0.6  c-1.7,0.3-3.3,0.3-5,0.3c-0.8,0-4,0.2-4.4,0.7c-0.3,0.4-0.2,2.5-0.2,3c0,0.9,0.1,1.8,0.1,2.6c-0.1,2.5,0.2,4.9,0.1,7.4  c-0.1,1.5-0.9,6.4-0.1,7.5c0.6,0.8,0.9,0.1,1.1,1.1c0.1,0.2-0.1,1.8-0.2,2.1c-0.3,0.8-1.2,1.6-1.1,2.8c0.1,0.9,0.3,1.7,0.2,2.7  c0,0.8,0,1.5,0.1,2.5c0.2,2.8,0,5.7,0.1,8.5c0,1.3,0.2,2.8,0.3,4.1c0.1,1.1-0.2,3.2,0.8,4.1c0.7,0.6,2.3,0.9,3.1,1.3  c1.3,0.6,2.9,1.1,4.1,1.7c0.3,0.2,6,3.1,6,2.6c-0.2-0.5-0.8-0.7-1-1.3c-0.1-0.3,0.2-0.7,0.2-1c0-1,0.1-2.1,0.1-3.1  c0.1-2.8,0.3-5.6,0.4-8.3c0.3-4.4,0.1-9,0.3-13.5c0.1-4.6,0.2-9,0-13.6c-0.1-1.7,0-3.5-0.1-5.3c-0.1-1.7-0.1-3.2-0.2-4.9  C97.4,146,96.8,143.7,97,142.5z M39,143.5c-2.7,0-5.6,1.1-8.2,1.5c-0.7,0.1-3.7,0.4-4,0.8c-0.6,0.6,1.2,4.1,1.4,5.1  c0.7,2.5,1.5,5,2.1,7.4c2.1,8.1,5.1,16.4,7,24.5c0.4,1.5,0.6,2.9,1.1,4.5c0.4,1.4,0.8,2.9,1.1,4.2c0.1,0.4,0.3,2.4,0.8,2.6  c0.2-3-0.1-5.3-0.1-8.4c0-1.4-0.1-3.5-0.1-5.2c0-1.5-0.3-2,1-2.2c-0.2-0.3-0.4-0.6-0.7-0.7c0,0.2,0,0.3-0.1,0.5  c-0.2-0.2-0.3-0.4-0.2-0.7c0.7,0,0.1-0.8,0-1.2c-0.2-1.1-0.2-2.6-0.1-3.8c0.1-1.6,0.1-2.9,0.1-4.3c0-0.5-0.2-1.8-0.2-2.5  c0-1.1-0.7-5.2,0.1-6.1c0.1,0.1,0.2,0.2,0.3,0.1c0-0.7-0.5-1-0.5-1.8c0-0.8,0.4-0.6,0.4-1.1c-0.1,0-0.3,0-0.4,0.1  c0-0.8-0.1-1.7,0-2.6c0-0.4,0.3-1.1,0.2-1.5c-0.1,0.1-0.2,0.2-0.2,0.2c0-0.4-0.5-1.2-0.1-1.6c0.1,0.2,0.2,0.2,0.4,0.2  c0,0.1-0.4-1.3-0.5-1.5c-0.1-0.5-0.1-0.9-0.1-1.3C39.3,147.2,39.3,144.9,39,143.5z M165.4,143.8  C165.7,143.8,165.4,143.5,165.4,143.8z M176.6,144.4c0.2,0,0.2,0,0.1-0.2C176.6,144.1,176.5,144.2,176.6,144.4z M72,148.4  c-0.2-0.1-1.7-0.3-2-0.1c-0.9,0.5-0.4,1.6-0.4,2.6c0.1,1.7,0.1,3.4,0.2,5.1c0.1,2.1,0.1,3.9,0.1,6.1c0,1.6-0.6,4.3,0.2,5.8  c1.8-1.7,4.3-0.2,4.3-3.4c0-1.6-0.2-3.1-0.2-4.7c0-2,0-4,0-6c0-1.1,0.1-2.3,0-3.4C74,148.6,74,147.8,72,148.4z M167.4,151.1  c0.3,1.4,0,3.5,0,4.8c0.1,2.2-0.2,4.6-0.2,7c0,4.5-0.1,9.3,0,13.8c0.1,4,0.2,8.4,0,12.4c-0.1,2.1-0.1,4.4,0,6.4  c0,0.9,0.3,1.5,0.7,1.9c0,0,1.2-0.2,1.2,0.6c0,0.7-1.1,0.4-1.4,0.4c-0.2,0.6,3.3,2.6,3.8,3c1,0.7,2.5,1.3,3.5,1.8  c3.4,1.7,6.4,4.1,10,5.3c0.1-1.4-0.1-2.9-0.1-4.2c0-0.8-0.1-1.3-0.2-2.1c-0.1-2-0.2-3.9-0.3-5.9c-0.3-4.7-0.5-10.2-0.7-14.6  c-0.2-2.4,0-5.1-0.1-7.2c-0.2-3-0.2-6-0.3-8.9c0-1.5,0-3.3-0.2-5.1c-0.1-1.5-0.2-3-0.4-4.5c-0.1-0.4,0.1-1-0.2-1.4  c-0.5-0.9,0.3-0.3-0.8-0.5c-0.4-0.1-1.2-0.1-1.6,0c-1,0.1-1.8,0.3-2.7,0.2c-0.3,0-0.6-0.1-1.1-0.2c-0.2,0-0.8-0.2-1-0.2  c-0.7,0.1-1.5,1.2-2.2,0.1c-1.2-1.7,0.1-0.5-0.1-1.3c-0.1-0.4-0.3-0.4-0.4-0.5c-0.2-0.3-0.4-0.9-0.7-1.1c-0.9-0.9-3.2-1.7-4.7-1.5  C167.4,150.1,167.1,150.8,167.4,151.1z M198.8,151.7c0,0-1.6,0.4-1.9,0.4c-1.7,0.4-3.7,0.8-5.6,1c0.6,0.9,0.3,3.8,0.4,4.9  c0.1,2.2,0.6,4.6,0.4,6.7c-0.2,2.5,0,5,0.1,7.6c0,0.9,0.4,3.9,0,4.7c0.7-0.3,1.1-3.2,1.2-3.8c0.2-0.7,0.4-1.6,0.6-2.3  c0.3-1.3,0.7-2.7,1-3.5c0.8-2.4,1.5-5.1,2.2-7.6c0.4-1.5,0.6-3.2,1-4.7c0.3-1.1,1.2-2.3,1.2-3.5  C199.1,151.6,198.9,151.6,198.8,151.7z M141.3,163.8c0.4-0.4,0.2-3.8,0.1-4.1c-0.3-0.9-0.5-0.6-0.8-1.1c-0.5-0.9-0.5-1.7-0.7-2.6  c-0.1-0.9,0-3.1-0.7-3.5c-0.7-0.4-2.4,0-3.2,0c-1.9,0.1-6.5,0.1-7.1,2.1c-0.3,1,0.1,2.2,0.1,3c0,1.4,0,3-0.1,4.4  c-0.2,3.9-0.4,7-0.6,10.8c-0.1,1.8,0.1,3.7,0,5.5c-0.1,1.4-0.5,2.6,1.1,2.8c1,0.1,2.7-0.4,3.8-0.5c1.8-0.2,3.7-0.4,5.5-0.6  c0.5-0.1,2.3-0.1,2.6-0.5c0.2-0.3,0-2.3,0-2.7c0-1.8-0.1-3.6-0.1-5.4C141.2,168.8,141,166.2,141.3,163.8z M158.7,197.8  c0.2-1.2-0.1-2.8-0.1-4c0-0.9,0.3-2,0.2-2.9c-0.1-2,0-3.6-0.1-5.6c-0.2-3.3-0.1-6.9-0.1-10c0-1.9,0.4-3.8,0.3-5.6  c0-1.5-0.3-2.7-0.3-4.2c0-2.2-0.1-4.2-0.1-6.3c0-1.8,0.3-4.2-0.3-5.9c-0.4-1.4-0.2-1-1.8-0.9c-1.2,0.1-2.4,0.2-3.6,0.3  c-0.8,0.1-2.1,0-2.5,0.7c-0.4,0.8-0.1,2.8-0.2,3.6c-0.2,3-0.2,6-0.3,9c-0.3,6.2-0.1,13-0.2,19.5c-0.1,3.6,0,7.5,0.5,11  c0.3,2.2,0.6,1.7,3,1.6c1.6-0.1,3.6-0.3,5.3,0C158.5,198.2,158.4,197.5,158.7,197.8z M39.8,152.7C40.1,152.7,39.8,152.4,39.8,152.7z   M40,164.2C40.3,164.2,40,163.9,40,164.2z M42.6,167.7c0-0.3-0.1-0.5-0.2-0.6C42.3,167.4,42.3,167.7,42.6,167.7z M40.5,168.4  C40.8,168.4,40.5,168.1,40.5,168.4z M73.9,185.7c-0.4-0.6-0.8-2.8-0.4-3.4c0.2,0.2,0.4,0.3,0.7,0.2c0.1-1,0.5-2.6,0.5-4.1  c-0.1-1.7,0-2.9,0-4.6c-1.5,0-3.3,1.6-4.6,1.4c-0.7,0.8,0.1,3.8,0.1,4.9c0,1.7,0,3.4,0.1,5.2c0.2,3.2,0,6,0.5,9.1  c0.8-0.1,3-0.3,3.5-1c0.4-0.5,0.2-1.5,0.1-2.3c-0.1-0.5-0.2-1-0.2-1.5c0-0.3,0.3-0.4,0.3-0.6c0-1.4-0.7-2.4-0.5-3.8  C73.8,185.2,74.1,185.7,73.9,185.7z M40.4,181.6c0.5,0,0.1-0.4,0.1-0.4C40.5,181.4,40.5,181.5,40.4,181.6z M40.4,185.1  C40.7,185.1,40.4,184.8,40.4,185.1z M140.3,186.5c-1.9-0.6-4.8,0.3-6.7,0.7c-1.4,0.2-4.7,0.3-5.4,1.5c-0.8,1.6-0.1,4.9,0.1,6.6  c0.1,1.9,0.1,1.8,2.1,1.7c1.1-0.1,2.3,0,3.4-0.2c1.5-0.2,3.1-0.4,4.7-0.6c0.8-0.1,1.2,0,1.8,0.2c0.3,0.1,1.1,0.7,1.4,0.4  c0.4-0.4-0.3-5.4-0.4-5.9C141.1,190,141.2,185.6,140.3,186.5z M40.3,194.6c0.2,0,0.2,0,0.1-0.2C40.2,194.3,40.2,194.4,40.3,194.6z"></path>
</svg>
